<svg xmlns="http://www.w3.org/2000/svg" width="24" height="24" viewBox="0 0 24 24">
<path d="M4,9 L6,9 L6,7 L4,7 L4,9 L4,9 Z M4,17 L6,17 L6,11 L4,11 L4,17 L4,17 Z M11,7 L9,7 C7.9,7 7,7.9 7,9 L7,15 C7,16.1 7.9,17 9,17 L11,17 C12.1,17 13,16.1 13,15 L13,9 C13,7.9 12.1,7 11,7 L11,7 Z M11,15 L9,15 L9,9 L11,9 L11,15 L11,15 Z M20,9 L20,7 L16,7 C14.9,7 14,7.9 14,9 L14,11 C14,12.1 14.9,13 16,13 L18,13 L18,15 L14,15 L14,17 L18,17 C19.1,17 20,16.1 20,15 L20,13 C20,11.9 19.1,11 18,11 L16,11 L16,9 L20,9 L20,9 Z" fill="#16AACA"></path>
</svg>