<svg xmlns="http://www.w3.org/2000/svg" width="24" height="24" viewBox="0 0 24 24">
<path d="M15.53,7.16 L16.83,5.86 C17.03,5.66 17.03,5.35 16.83,5.15 C16.63,4.95 16.32,4.95 16.12,5.15 L14.64,6.63 C13.85,6.23 12.95,6 12,6 C11.04,6 10.14,6.23 9.34,6.63 L7.85,5.15 C7.65,4.95 7.34,4.95 7.14,5.15 C6.94,5.35 6.94,5.66 7.14,5.86 L8.45,7.17 C6.97,8.26 6,10.01 6,12 L18,12 C18,10.01 17.03,8.25 15.53,7.16 L15.53,7.16 Z M10,10 L9,10 L9,9 L10,9 L10,10 L10,10 Z M15,10 L14,10 L14,9 L15,9 L15,10 Z M6,13 L18,13 L18,15.9906311 C18,16.5480902 17.544239,17 16.9975267,17 L7.00247329,17 C6.44882258,17 6,16.5566468 6,15.9906311 L6,13 Z" id="icon" fill="#00BFA5"></path>
</svg>